<svg id="wave" style="transform:rotate(90deg); transition: 0.3s" viewBox="0 0 1440 470" version="1.1"
  xmlns="http://www.w3.org/2000/svg">
  <defs>
    <linearGradient id="sw-gradient-1" x1="0" x2="0" y1="1" y2="0">
      <stop stop-color="rgba(39, 24, 126, 1)" offset="0%"></stop>
      <stop stop-color="rgba(39, 24, 126, 1)" offset="100%"></stop>
    </linearGradient>
  </defs>
  <path style="transform:translate(0, 50px); opacity:0.9" fill="url(#sw-gradient-1)" d="M0,47L34.3,94C68.6,141,137,235,206,258.5C274.3,282,343,235,411,188C480,141,549,94,617,86.2C685.7,78,754,110,823,117.5C891.4,125,960,110,1029,94C1097.1,78,1166,63,1234,70.5C1302.9,78,1371,110,1440,172.3C1508.6,235,1577,329,1646,336.8C1714.3,345,1783,266,1851,250.7C1920,235,1989,282,2057,297.7C2125.7,313,2194,298,2263,250.7C2331.4,204,2400,125,2469,125.3C2537.1,125,2606,204,2674,266.3C2742.9,329,2811,376,2880,336.8C2948.6,298,3017,172,3086,156.7C3154.3,141,3223,235,3291,235C3360,235,3429,141,3497,125.3C3565.7,110,3634,172,3703,211.5C3771.4,251,3840,266,3909,242.8C3977.1,219,4046,157,4114,125.3C4182.9,94,4251,94,4320,101.8C4388.6,110,4457,125,4526,125.3C4594.3,125,4663,110,4731,141C4800,172,4869,251,4903,289.8L4937.1,329L4937.1,470L4902.9,470C4868.6,470,4800,470,4731,470C4662.9,470,4594,470,4526,470C4457.1,470,4389,470,4320,470C4251.4,470,4183,470,4114,470C4045.7,470,3977,470,3909,470C3840,470,3771,470,3703,470C3634.3,470,3566,470,3497,470C3428.6,470,3360,470,3291,470C3222.9,470,3154,470,3086,470C3017.1,470,2949,470,2880,470C2811.4,470,2743,470,2674,470C2605.7,470,2537,470,2469,470C2400,470,2331,470,2263,470C2194.3,470,2126,470,2057,470C1988.6,470,1920,470,1851,470C1782.9,470,1714,470,1646,470C1577.1,470,1509,470,1440,470C1371.4,470,1303,470,1234,470C1165.7,470,1097,470,1029,470C960,470,891,470,823,470C754.3,470,686,470,617,470C548.6,470,480,470,411,470C342.9,470,274,470,206,470C137.1,470,69,470,34,470L0,470Z"></path>
</svg>
