<svg id="wave" style="transform:rotate(90deg); transition: 0.3s" viewBox="0 0 1440 470" version="1.1"
  xmlns="http://www.w3.org/2000/svg">
  <defs>
    <linearGradient id="sw-gradient-0" x1="0" x2="0" y1="1" y2="0">
      <stop stop-color="rgba(117, 139, 253, 1)" offset="0%"></stop>
      <stop stop-color="rgba(117, 139, 253, 1)" offset="100%"></stop>
    </linearGradient>
  </defs>
  <path style="transform:translate(0, 0px); opacity:1" fill="url(#sw-gradient-0)" d="M0,47L34.3,78.3C68.6,110,137,172,206,219.3C274.3,266,343,298,411,282C480,266,549,204,617,188C685.7,172,754,204,823,203.7C891.4,204,960,172,1029,164.5C1097.1,157,1166,172,1234,148.8C1302.9,125,1371,63,1440,62.7C1508.6,63,1577,125,1646,125.3C1714.3,125,1783,63,1851,39.2C1920,16,1989,31,2057,101.8C2125.7,172,2194,298,2263,329C2331.4,360,2400,298,2469,227.2C2537.1,157,2606,78,2674,54.8C2742.9,31,2811,63,2880,70.5C2948.6,78,3017,63,3086,70.5C3154.3,78,3223,110,3291,164.5C3360,219,3429,298,3497,282C3565.7,266,3634,157,3703,94C3771.4,31,3840,16,3909,39.2C3977.1,63,4046,125,4114,195.8C4182.9,266,4251,345,4320,376C4388.6,407,4457,392,4526,336.8C4594.3,282,4663,188,4731,172.3C4800,157,4869,219,4903,250.7L4937.1,282L4937.1,470L4902.9,470C4868.6,470,4800,470,4731,470C4662.9,470,4594,470,4526,470C4457.1,470,4389,470,4320,470C4251.4,470,4183,470,4114,470C4045.7,470,3977,470,3909,470C3840,470,3771,470,3703,470C3634.3,470,3566,470,3497,470C3428.6,470,3360,470,3291,470C3222.9,470,3154,470,3086,470C3017.1,470,2949,470,2880,470C2811.4,470,2743,470,2674,470C2605.7,470,2537,470,2469,470C2400,470,2331,470,2263,470C2194.3,470,2126,470,2057,470C1988.6,470,1920,470,1851,470C1782.9,470,1714,470,1646,470C1577.1,470,1509,470,1440,470C1371.4,470,1303,470,1234,470C1165.7,470,1097,470,1029,470C960,470,891,470,823,470C754.3,470,686,470,617,470C548.6,470,480,470,411,470C342.9,470,274,470,206,470C137.1,470,69,470,34,470L0,470Z"></path>
</svg>
